<?xml version="1.0" standalone="no"?>
<!DOCTYPE svg PUBLIC "-//W3C//DTD SVG 20010904//EN"
 "http://www.w3.org/TR/2001/REC-SVG-20010904/DTD/svg10.dtd">
<svg version="1.0" xmlns="http://www.w3.org/2000/svg"
 width="519.000000pt" height="519.000000pt" viewBox="0 0 519.000000 519.000000"
 preserveAspectRatio="xMidYMid meet">
<metadata>
Created by potrace 1.11, written by Peter Selinger 2001-2013
</metadata>
<g transform="translate(0.000000,519.000000) scale(0.100000,-0.100000)"
fill="#000000" stroke="none">
<path d="M169 4009 c-55 -8 -93 -27 -136 -68 l-33 -30 0 -210 0 -209 38 -49
c45 -56 90 -103 149 -155 39 -35 42 -40 32 -65 -29 -76 -12 -228 35 -322 80
-156 243 -257 411 -255 163 2 263 81 235 185 -17 61 -110 144 -327 291 -106
71 -193 133 -193 137 0 21 76 132 118 170 150 140 394 154 518 31 113 -112
133 -258 90 -656 -10 -90 -24 -199 -31 -244 -2 -14 -7 -45 -10 -70 -3 -25 -7
-58 -10 -75 -3 -16 -7 -48 -10 -70 -3 -22 -10 -69 -16 -105 -6 -36 -12 -76
-14 -90 -2 -14 -8 -56 -15 -95 -6 -38 -13 -83 -16 -100 -2 -16 -6 -41 -9 -55
-3 -14 -7 -43 -10 -65 -2 -22 -7 -51 -10 -65 -20 -98 -21 -157 -6 -237 23
-117 111 -238 221 -302 101 -58 271 -74 410 -37 164 43 335 144 476 282 33 32
143 160 245 284 101 124 191 234 200 245 10 11 75 90 145 175 70 85 191 232
268 325 126 153 257 307 371 435 91 103 199 203 270 249 144 95 247 109 368
51 72 -34 127 -43 134 -22 11 31 -160 152 -237 168 -182 37 -368 -22 -539
-171 -42 -37 -235 -229 -276 -276 -90 -101 -212 -248 -296 -354 -117 -149
-341 -428 -348 -435 -3 -3 -24 -27 -46 -55 -39 -48 -312 -363 -344 -396 -262
-270 -324 -320 -404 -321 -58 -1 -85 16 -108 66 -28 64 -26 167 5 321 2 11 11
58 20 105 20 106 24 129 31 160 6 26 7 35 21 110 4 25 8 47 9 50 1 3 5 23 9
45 4 22 14 74 21 115 8 41 17 93 20 115 2 22 7 49 9 61 4 18 9 55 22 154 19
145 24 364 10 485 -9 82 -47 201 -83 264 -56 97 -182 189 -298 219 -164 44
-470 34 -630 -19 -129 -44 -266 -143 -326 -237 l-27 -43 -43 53 c-123 155
-110 282 42 437 39 38 69 78 69 89 0 53 -86 94 -171 81z m396 -1004 c182 -124
239 -187 219 -239 -18 -47 -110 -59 -195 -24 -122 49 -204 138 -234 255 -15
58 -20 145 -9 156 4 3 32 -13 63 -36 31 -24 101 -74 156 -112z"/>
<path d="M4710 3672 c-14 -1 -69 -12 -123 -23 -288 -61 -440 -193 -502 -439
-23 -90 -21 -235 5 -329 12 -40 19 -75 18 -76 -8 -8 -183 -86 -268 -120 -288
-114 -573 -184 -853 -209 -20 -2 -44 -9 -52 -16 -19 -16 -19 -54 -1 -69 24
-20 155 -14 336 15 19 3 82 16 140 30 58 14 112 27 120 29 102 24 374 125 533
199 43 20 82 36 85 36 7 0 49 -77 157 -291 137 -270 186 -496 143 -654 -64
-233 -251 -360 -543 -370 -297 -11 -453 96 -444 304 3 64 24 142 41 152 11 7
95 18 188 24 54 4 152 13 235 21 109 10 239 35 290 56 70 28 115 80 115 130 0
66 -37 111 -125 153 -190 91 -501 20 -707 -161 -36 -31 -113 -125 -120 -144
-2 -6 -21 -13 -42 -16 -21 -2 -60 -9 -85 -15 -25 -6 -54 -12 -65 -15 -43 -8
-184 -57 -242 -84 -209 -94 -315 -248 -275 -397 24 -90 167 -139 241 -83 22
17 24 26 26 107 5 167 60 253 209 327 67 33 173 71 181 64 1 -2 -1 -21 -6 -43
-44 -189 64 -396 262 -500 321 -170 897 -86 1157 167 127 124 192 304 186 516
-6 203 -65 408 -200 692 -67 141 -135 295 -135 305 0 1 32 23 71 49 142 95
345 251 406 312 88 90 119 147 114 216 -3 49 -125 127 -226 144 -49 8 -197 12
-245 6z m253 -200 c53 -30 49 -64 -15 -126 -81 -78 -362 -286 -388 -286 -5 0
-14 19 -20 43 -6 23 -13 47 -15 54 -2 6 -7 36 -10 67 -15 123 84 229 245 262
74 15 164 9 203 -14z m-796 -1322 c72 -32 75 -83 7 -121 -46 -25 -118 -41
-249 -54 -33 -3 -78 -8 -100 -10 -22 -2 -71 -7 -110 -11 -38 -3 -90 -10 -115
-14 -25 -5 -47 -6 -49 -4 -10 10 98 108 160 145 154 92 340 120 456 69z"/>
</g>
</svg>
